<?xml version="1.0" standalone="no"?>
<!DOCTYPE svg PUBLIC "-//W3C//DTD SVG 20010904//EN"
 "http://www.w3.org/TR/2001/REC-SVG-20010904/DTD/svg10.dtd">
<svg version="1.0" xmlns="http://www.w3.org/2000/svg"
 width="2306.000000pt" height="2375.000000pt" viewBox="0 0 2306.000000 2375.000000"
 preserveAspectRatio="xMidYMid meet">

<g transform="translate(0.000000,2375.000000) scale(0.100000,-0.100000)"
fill="#000000" stroke="none">
<path d="M7890 23135 c-212 -29 -372 -79 -575 -180 -195 -97 -310 -180 -471
-340 -130 -130 -211 -233 -295 -375 -24 -41 -276 -596 -559 -1234 l-516 -1159
-114 -23 c-535 -108 -1002 -457 -1249 -934 -76 -147 -113 -242 -150 -382 -64
-241 -61 -140 -61 -2216 l0 -1890 -267 -4 c-249 -5 -275 -7 -366 -31 -198 -53
-378 -158 -519 -305 -122 -128 -199 -253 -252 -413 -58 -173 -57 -146 -54
-1480 l3 -1224 23 -80 c98 -346 292 -585 593 -729 187 -90 336 -116 666 -116
l173 0 3 -1937 3 -1938 26 -121 c165 -735 709 -1278 1430 -1424 57 -12 106
-24 110 -28 4 -4 237 -523 517 -1152 280 -630 530 -1182 556 -1228 95 -168
248 -353 397 -479 294 -249 660 -401 1045 -433 161 -13 6975 -13 7136 0 578
48 1092 357 1402 845 64 101 133 250 630 1371 l480 1081 110 22 c718 142 1269
690 1432 1425 l27 121 3 1938 3 1937 179 0 c325 0 476 27 666 119 322 155 541
449 600 807 14 89 16 225 13 1314 l-3 1215 -27 98 c-118 429 -461 742 -889
812 -64 10 -165 15 -316 15 l-223 0 -3 1938 -3 1937 -27 122 c-50 227 -140
449 -252 623 -267 416 -691 707 -1175 804 l-114 23 -516 1159 c-304 684 -537
1196 -569 1249 -87 144 -156 232 -290 365 -156 155 -272 238 -466 335 -207
103 -365 151 -585 181 -151 20 -7174 19 -7320 -1z m7363 -747 c112 -31 257
-97 346 -158 124 -83 257 -229 335 -363 15 -26 222 -486 460 -1022 l434 -975
-5273 0 -5273 0 442 993 c313 704 456 1014 491 1067 135 201 340 358 569 435
169 57 -71 53 3801 52 l3570 -2 98 -27z m2283 -3259 c444 -62 798 -380 915
-824 l24 -90 0 -6005 0 -6005 -28 -100 c-114 -414 -413 -697 -847 -801 -72
-18 -324 -19 -5960 -22 -3835 -2 -5924 1 -5997 7 -206 18 -365 74 -531 184
-250 167 -427 445 -472 742 -7 49 -10 1895 -8 6040 l3 5970 22 81 c122 449
487 771 938 827 17 2 2693 5 5947 6 4164 1 5939 -2 5994 -10z m-13638 -6916
l-3 -1458 -221 0 -220 0 -76 38 c-87 42 -136 92 -177 177 l-26 55 0 1185 0
1185 29 62 c30 66 97 137 157 169 73 38 110 43 327 43 l212 1 -2 -1457z
m15828 1424 c77 -36 145 -104 181 -182 l28 -60 3 -1164 c3 -1287 6 -1220 -61
-1317 -43 -63 -115 -117 -186 -141 -47 -15 -89 -18 -266 -18 l-210 0 -3 1458
-2 1458 227 -3 c226 -3 229 -3 289 -31z m-2906 -9088 c0 -13 -805 -1828 -857
-1934 -166 -334 -492 -563 -862 -605 -118 -13 -6974 -13 -7092 0 -214 25 -431
119 -602 264 -80 67 -190 209 -244 314 -56 108 -873 1943 -873 1961 0 8 1378
11 5265 11 3856 0 5265 -3 5265 -11z"/>
<path d="M9613 17661 c-159 -59 -251 -200 -241 -369 5 -84 22 -125 102 -249
217 -338 396 -797 475 -1213 44 -233 55 -374 55 -660 0 -344 -24 -541 -105
-865 -147 -587 -485 -1183 -906 -1598 l-69 -68 -108 72 c-123 81 -292 238
-395 368 -203 254 -404 649 -511 1001 -49 162 -105 236 -220 289 -46 22 -69
26 -145 26 -76 0 -99 -4 -145 -26 -109 -51 -144 -95 -346 -431 -441 -737 -750
-1591 -884 -2447 -58 -373 -80 -652 -80 -1042 0 -413 32 -687 121 -1049 194
-786 650 -1642 1241 -2330 214 -249 282 -303 405 -319 158 -22 307 59 379 205
26 53 29 69 29 154 -1 122 -24 173 -136 296 -635 694 -1120 1617 -1259 2397
-38 215 -50 364 -50 617 0 900 211 1835 602 2663 28 59 54 107 57 107 3 0 31
-48 61 -107 121 -235 289 -462 486 -654 143 -139 239 -216 399 -321 125 -83
382 -215 473 -244 76 -24 189 -16 264 20 150 71 558 535 823 936 422 637 662
1277 747 1985 20 170 17 665 -5 840 -47 362 -137 713 -269 1044 -27 68 -48
125 -46 126 5 4 256 -74 386 -121 1035 -373 1841 -1031 2338 -1909 276 -488
465 -1073 548 -1699 34 -254 46 -402 55 -696 7 -210 12 -263 27 -303 54 -140
193 -237 340 -237 74 0 160 30 322 110 486 244 895 646 1142 1123 30 59 58
107 61 107 8 0 105 -206 169 -360 323 -773 490 -1596 490 -2410 0 -386 -40
-659 -151 -1030 -198 -659 -640 -1418 -1153 -1979 -48 -52 -99 -120 -114 -150
-24 -49 -27 -68 -27 -151 0 -85 3 -101 29 -154 63 -129 171 -198 316 -204 155
-7 221 35 424 267 482 553 880 1213 1122 1860 142 379 231 752 269 1131 18
180 20 647 5 868 -83 1154 -423 2204 -1034 3191 -125 202 -167 250 -254 293
-61 30 -75 33 -157 33 -81 0 -97 -4 -157 -33 -67 -33 -134 -96 -165 -156 -8
-16 -28 -74 -45 -130 -124 -414 -342 -801 -642 -1135 -105 -116 -116 -121
-116 -49 0 60 -47 411 -75 563 -179 973 -559 1784 -1151 2455 -115 131 -357
369 -489 482 -726 619 -1714 1074 -2725 1253 -205 36 -320 41 -387 16z"/>
<path d="M11123 12570 c-110 -23 -210 -99 -258 -197 -23 -46 -29 -75 -33 -143
-4 -83 -3 -89 46 -215 116 -303 163 -512 181 -805 24 -375 -42 -758 -190
-1118 -46 -110 -140 -292 -151 -292 -4 0 -51 35 -105 79 -181 145 -371 363
-488 559 -94 158 -130 207 -179 243 -125 94 -311 92 -438 -4 -88 -68 -245
-334 -342 -581 -84 -212 -151 -496 -175 -740 -14 -140 -14 -428 0 -576 56
-602 305 -1213 728 -1780 111 -148 149 -185 229 -223 58 -28 77 -32 147 -31
58 0 96 7 137 23 168 65 264 261 214 436 -20 68 -24 73 -142 231 -465 620
-667 1280 -583 1904 9 69 57 298 64 311 2 3 68 -58 147 -136 79 -77 192 -180
252 -228 210 -167 471 -328 565 -348 108 -23 233 9 314 80 41 37 139 167 220
293 363 565 544 1247 506 1911 -8 152 -23 292 -36 345 -5 22 1 20 95 -27 553
-277 1042 -750 1356 -1310 61 -108 131 -275 171 -404 215 -707 120 -1530 -282
-2460 -35 -82 -69 -174 -74 -205 -21 -111 22 -233 111 -316 111 -104 242 -129
387 -75 108 41 164 113 258 334 226 529 371 1064 427 1575 15 145 15 593 0
725 -52 437 -157 791 -343 1157 -246 483 -650 937 -1156 1301 -376 270 -830
504 -1265 651 -170 58 -244 71 -315 56z"/>
</g>
</svg>
