<?xml version="1.0" standalone="no"?>
<!DOCTYPE svg PUBLIC "-//W3C//DTD SVG 20010904//EN"
 "http://www.w3.org/TR/2001/REC-SVG-20010904/DTD/svg10.dtd">
<svg version="1.0" xmlns="http://www.w3.org/2000/svg"
 width="746.000000pt" height="770.000000pt" viewBox="0 0 746.000000 770.000000"
 preserveAspectRatio="xMidYMid meet">

<g transform="translate(0.000000,770.000000) scale(0.100000,-0.100000)"
fill="#000000" stroke="none">
<path d="M3640 7194 c-308 -62 -506 -241 -591 -531 -30 -104 -28 -261 6 -378
38 -130 80 -202 178 -304 205 -212 531 -274 801 -152 189 86 328 241 394 438
21 67 25 97 26 208 1 110 -3 142 -22 205 -41 130 -87 206 -187 305 -141 142
-280 203 -475 210 -58 2 -116 1 -130 -1z"/>
<path d="M2543 5575 c-254 -24 -479 -49 -500 -55 -106 -34 -217 -130 -262
-226 -20 -41 -62 -221 -217 -931 l-38 -173 -183 0 -183 0 0 227 c0 205 -2 231
-20 268 -37 77 -49 80 -350 80 l-265 0 -55 -26 c-69 -33 -116 -80 -146 -144
l-24 -50 0 -494 c0 -338 4 -506 11 -531 19 -64 78 -131 144 -165 l59 -30 265
-3 c306 -3 318 -1 359 78 21 42 22 55 22 272 l0 228 184 0 185 0 23 -47 c12
-27 48 -73 79 -104 177 -176 445 -168 619 17 32 35 64 79 71 98 l13 36 298 0
298 0 0 -98 0 -97 -152 -142 c-84 -78 -262 -249 -394 -380 -254 -250 -277
-281 -303 -394 -7 -27 -11 -296 -11 -704 0 -730 0 -728 63 -834 18 -29 54 -73
80 -97 218 -197 552 -125 681 146 l31 65 5 577 5 577 271 274 272 274 173 -3
172 -2 269 -269 268 -268 0 -525 c0 -307 4 -552 10 -590 23 -144 114 -264 249
-329 72 -34 82 -36 176 -36 94 0 104 2 176 36 137 66 228 188 249 334 12 86
13 1172 1 1306 -14 157 -28 178 -275 425 -116 116 -293 289 -392 385 l-182
174 -5 98 -4 97 392 0 392 0 19 -42 c10 -24 46 -70 79 -103 152 -152 373 -177
542 -63 60 40 119 106 145 161 l23 47 187 0 188 0 0 -239 c0 -231 1 -239 23
-272 43 -65 62 -69 343 -69 287 0 314 5 392 75 26 23 58 64 72 91 l25 49 0
505 0 505 -24 52 c-27 61 -84 116 -150 147 -43 20 -61 21 -311 21 -295 0 -311
-3 -350 -68 -18 -29 -20 -52 -20 -269 l0 -238 -185 0 c-183 0 -185 0 -190 23
-13 55 -169 766 -196 890 -16 76 -41 163 -55 192 -56 119 -180 212 -314 235
-36 6 -310 26 -610 45 -490 30 -608 34 -1160 39 l-615 5 -462 -44z m2192 -861
c138 -9 252 -18 254 -20 3 -2 24 -104 47 -227 23 -122 45 -234 48 -249 l6 -28
-364 0 -364 0 3 38 c2 20 3 144 4 275 l1 239 58 -6 c31 -3 170 -13 307 -22z
m-1805 -260 l0 -264 -265 0 c-198 0 -265 3 -265 12 0 11 91 492 94 494 3 4
422 30 429 26 4 -2 7 -122 7 -268z"/>
</g>
</svg>
