<?xml version="1.0" standalone="no"?>
<!DOCTYPE svg PUBLIC "-//W3C//DTD SVG 20010904//EN"
 "http://www.w3.org/TR/2001/REC-SVG-20010904/DTD/svg10.dtd">
<svg version="1.0" xmlns="http://www.w3.org/2000/svg"
 width="2904.000000pt" height="2528.000000pt" viewBox="0 0 2904.000000 2528.000000"
 preserveAspectRatio="xMidYMid meet">

<g transform="translate(0.000000,2528.000000) scale(0.100000,-0.100000)"
fill="#000000" stroke="none">
<path d="M19254 22979 c-161 -18 -299 -83 -435 -202 -129 -114 -1072 -1066
-1106 -1117 -97 -144 -137 -275 -137 -445 1 -168 38 -292 128 -426 56 -83
3815 -3839 3898 -3895 130 -87 265 -127 428 -126 165 1 321 51 449 147 26 18
301 289 612 602 l567 568 50 105 c61 127 82 217 82 348 0 153 -45 302 -131
429 -43 65 -3788 3813 -3864 3868 -112 80 -228 127 -345 140 -109 12 -126 12
-196 4z"/>
<path d="M22303 22231 c-132 -38 -163 -61 -408 -303 l-230 -227 420 -421 421
-421 214 216 c141 141 228 237 253 277 205 337 18 785 -368 883 -79 20 -224
18 -302 -4z"/>
<path d="M16104 21230 c-119 -17 -241 -63 -341 -131 -53 -35 -1038 -1011
-1138 -1127 -230 -266 -256 -638 -65 -925 37 -55 649 -673 2651 -2673 2840
-2837 2644 -2650 2822 -2709 159 -53 319 -53 486 0 155 50 161 54 779 670 383
381 588 592 617 635 87 130 125 258 125 418 0 162 -44 312 -128 434 -34 49
-5207 5231 -5262 5271 -143 104 -371 161 -546 137z"/>
<path d="M14245 14280 l-2170 -2170 423 -422 422 -423 2165 2165 c1191 1191
2165 2170 2165 2175 0 6 -188 198 -418 428 l-417 417 -2170 -2170z"/>
<path d="M8875 14070 c-106 -27 -214 -82 -300 -152 -118 -95 -1107 -1095
-1156 -1168 -165 -248 -172 -562 -18 -828 26 -44 641 -665 2629 -2655 1427
-1429 2623 -2619 2657 -2643 135 -98 263 -138 443 -138 148 -1 237 20 365 87
76 39 109 70 676 637 l596 595 46 95 c66 134 82 200 82 350 0 181 -39 306
-139 444 -25 34 -1216 1231 -2648 2662 -2570 2568 -2604 2601 -2683 2641 -129
66 -202 85 -345 89 -102 3 -140 0 -205 -16z"/>
<path d="M7144 10935 c-84 -18 -187 -63 -264 -115 -67 -44 -993 -956 -1135
-1117 -80 -91 -141 -199 -177 -313 -30 -98 -33 -298 -4 -400 25 -92 76 -195
129 -265 25 -33 898 -911 1939 -1951 2053 -2051 1930 -1935 2103 -1997 235
-84 498 -48 698 97 98 70 1175 1159 1216 1228 81 140 117 284 108 438 -9 156
-59 297 -145 412 -69 91 -3830 3842 -3892 3881 -70 43 -173 85 -259 103 -82
17 -236 17 -317 -1z"/>
<path d="M6599 6633 c-203 -204 -230 -236 -263 -303 -87 -180 -86 -355 5 -539
75 -152 217 -264 389 -307 87 -22 251 -15 333 15 109 39 168 85 385 301 117
117 212 215 212 218 0 4 -188 195 -418 425 l-418 417 -225 -227z"/>
</g>
</svg>
