<?xml version="1.0" standalone="no"?>
<!DOCTYPE svg PUBLIC "-//W3C//DTD SVG 20010904//EN"
 "http://www.w3.org/TR/2001/REC-SVG-20010904/DTD/svg10.dtd">
<svg version="1.0" xmlns="http://www.w3.org/2000/svg"
 width="699.000000pt" height="618.000000pt" viewBox="0 0 699.000000 618.000000"
 preserveAspectRatio="xMidYMid meet">

<g transform="translate(0.000000,618.000000) scale(0.100000,-0.100000)"
fill="#000000" stroke="none">
<path d="M3658 5975 c-146 -104 -449 -400 -593 -580 -79 -98 -190 -265 -231
-348 -77 -152 -154 -380 -191 -565 -13 -66 -17 -135 -17 -282 0 -171 4 -211
27 -330 80 -395 90 -476 91 -671 l1 -185 -43 -86 c-70 -142 -163 -204 -323
-215 -104 -8 -162 13 -239 83 -32 30 -72 76 -88 102 -84 130 -147 464 -123
641 7 47 19 100 26 118 l14 33 -35 -27 c-56 -42 -189 -198 -259 -303 -182
-272 -249 -517 -249 -910 0 -217 16 -318 75 -487 42 -117 135 -300 199 -392
70 -98 195 -221 305 -300 156 -111 234 -133 369 -106 173 35 337 146 506 341
362 420 484 790 484 1469 0 253 -7 332 -40 420 -24 66 241 -246 358 -420 106
-159 201 -353 234 -480 22 -82 28 -129 31 -265 9 -310 -25 -428 -265 -921
-115 -234 -145 -311 -156 -391 -5 -43 -3 -51 25 -82 45 -52 81 -60 201 -47
137 15 209 33 373 93 408 149 739 331 938 518 194 182 370 468 460 745 68 210
97 400 97 630 0 246 -31 436 -110 675 -181 551 -544 1040 -1045 1408 -60 44
-111 79 -113 78 -1 -2 16 -50 39 -107 50 -127 120 -368 156 -538 21 -99 27
-155 27 -261 1 -125 -1 -139 -24 -185 -50 -100 -127 -118 -277 -66 -241 84
-454 271 -572 501 -152 296 -189 703 -105 1160 35 187 54 263 150 573 8 26 -5
21 -88 -38z"/>
</g>
</svg>
