<?xml version="1.0" standalone="no"?>
<!DOCTYPE svg PUBLIC "-//W3C//DTD SVG 20010904//EN"
 "http://www.w3.org/TR/2001/REC-SVG-20010904/DTD/svg10.dtd">
<svg version="1.0" xmlns="http://www.w3.org/2000/svg"
 width="1971.000000pt" height="2276.000000pt" viewBox="0 0 1971.000000 2276.000000"
 preserveAspectRatio="xMidYMid meet">

<g transform="translate(0.000000,2276.000000) scale(0.100000,-0.100000)"
fill="#000000" stroke="none">
<path d="M10120 21823 c-363 -35 -685 -157 -961 -362 -377 -281 -631 -676
-724 -1128 -88 -425 -29 -852 171 -1243 182 -354 463 -631 824 -813 162 -82
285 -125 453 -162 750 -162 1533 160 1957 805 439 669 408 1538 -79 2175 -65
85 -223 247 -311 318 -335 270 -771 422 -1194 415 -55 0 -117 -3 -136 -5z"/>
<path d="M9276 17340 c-172 -22 -329 -71 -496 -155 -61 -31 -475 -298 -988
-637 -485 -321 -1353 -894 -1930 -1275 -576 -381 -1074 -715 -1107 -743 -170
-143 -289 -348 -336 -577 -19 -89 -19 -156 -16 -1815 l3 -1723 21 -74 c61
-207 156 -366 297 -498 417 -390 1058 -373 1451 38 122 128 195 255 252 436
l28 88 3 1391 2 1392 760 501 c417 276 764 501 769 501 7 0 12 -596 14 -1907
2 -1799 4 -1912 21 -1983 64 -266 164 -467 331 -664 l54 -63 -211 -329 c-116
-181 -430 -671 -698 -1089 -708 -1105 -2955 -4611 -3172 -4950 -102 -159 -204
-326 -226 -370 -73 -146 -122 -348 -122 -505 0 -434 243 -841 623 -1043 150
-80 318 -125 497 -133 410 -19 789 169 1017 503 54 79 585 907 3336 5198 423
660 775 1206 782 1214 12 12 24 6 87 -46 40 -33 537 -434 1103 -893 567 -458
1038 -840 1047 -849 10 -9 221 -658 503 -1546 917 -2887 904 -2845 951 -2941
345 -696 1276 -860 1846 -325 311 291 439 726 337 1141 -11 47 -295 949 -631
2005 -335 1056 -670 2111 -744 2345 -149 470 -190 567 -299 712 -37 48 -99
117 -138 152 -64 58 -1754 1427 -2949 2391 l-447 360 0 809 c-1 770 0 808 17
794 173 -150 2143 -1784 2187 -1814 506 -352 1216 -175 1498 374 89 172 124
337 114 531 -12 231 -89 427 -239 611 -43 52 -379 337 -1350 1147 -711 592
-1502 1252 -1758 1465 l-465 389 -6 587 c-6 632 -8 652 -65 850 -33 115 -117
289 -196 404 -78 115 -244 282 -361 365 -159 112 -349 193 -551 234 -114 23
-341 33 -450 19z"/>
</g>
</svg>
